<svg width="37" height="37" viewBox="0 0 37 37" fill="none" xmlns="http://www.w3.org/2000/svg">
<g clip-path="url(#clip0_2007_936)">
<path d="M27.613 27.0586C27.633 27.2106 27.5806 27.3641 27.4727 27.4724C27.364 27.5815 27.211 27.633 27.0585 27.6131L11.9219 25.6346C11.8109 25.6203 11.7117 25.5693 11.6368 25.4943C11.5628 25.4203 11.5121 25.3233 11.4963 25.2136C11.4654 24.994 11.5856 24.7805 11.7889 24.6921L17.8662 22.0571L7.78119 11.9714C7.58898 11.7787 7.58806 11.4654 7.78165 11.2722L11.2723 7.78157C11.4654 7.58845 11.7783 7.58898 11.9715 7.78157L22.0567 17.8666L24.6908 11.7897C24.7801 11.5869 24.9931 11.4662 25.2133 11.4971C25.4335 11.5278 25.6062 11.701 25.6338 11.9224L27.613 27.0586ZM31.2339 31.2339C24.2129 38.2553 12.7874 38.2553 5.7659 31.2339C-1.2553 24.2129 -1.2553 12.7872 5.7659 5.7659C12.7873 -1.2553 24.2129 -1.2553 31.2339 5.7659C38.2553 12.7879 38.2553 24.2125 31.2339 31.2339ZM29.8375 7.16212C23.5858 0.910676 13.4134 0.911059 7.16212 7.16212C0.910677 13.4138 0.910677 23.5857 7.16212 29.8375C13.4134 36.0883 23.5857 36.0888 29.8375 29.8375C36.0883 23.5858 36.0883 13.4139 29.8375 7.16212Z" fill="#FDF4FF"/>
</g>
<defs>
<clipPath id="clip0_2007_936">
<rect width="36" height="36" fill="white" transform="translate(0.5 0.5)"/>
</clipPath>
</defs>
</svg>
