<svg width="20" height="20" viewBox="0 0 20 20" fill="none" xmlns="http://www.w3.org/2000/svg">
<g id="IconFrame">
<path id="Vector" d="M18.4324 0.0078125H1.56751C0.703233 0.0078125 0 0.710404 0 1.57481V18.4217C0 19.2855 0.703233 19.9886 1.56751 19.9886H18.4324C19.2969 19.9886 20 19.2855 20 18.4217V1.57481C19.9998 0.710404 19.2969 0.0078125 18.4324 0.0078125ZM16.2907 13.9673C16.8988 14.5757 16.8988 15.562 16.2907 16.1691C15.9866 16.4729 15.5876 16.6255 15.1895 16.6255C14.791 16.6255 14.3929 16.473 14.0893 16.1691L9.99985 12.0802L5.91026 16.1689C5.60668 16.4727 5.20866 16.6253 4.81034 16.6253C4.4118 16.6253 4.01353 16.4727 3.70943 16.1689C3.10114 15.5615 3.10114 14.5755 3.70943 13.9673L7.79764 9.87862L3.70943 5.78929C3.10114 5.181 3.10114 4.19538 3.70943 3.58786C4.31733 2.9797 5.30198 2.9797 5.91022 3.58786L9.99981 7.67667L14.0893 3.58786C14.6974 2.9797 15.6825 2.9797 16.2906 3.58786C16.8988 4.19538 16.8988 5.181 16.2906 5.78929L12.2022 9.87862L16.2907 13.9673Z" fill="#C026D3"/>
</g>
</svg>
