<svg width="37" height="37" viewBox="0 0 37 37" fill="none" xmlns="http://www.w3.org/2000/svg">
<g clip-path="url(#clip0_2007_206)">
<path d="M34.0059 3.77726L30.9716 26.9929C30.9495 27.163 30.8711 27.3153 30.7562 27.4302C30.6424 27.5435 30.4935 27.621 30.3259 27.6446C29.9893 27.6919 29.6619 27.5086 29.5263 27.196L25.4845 17.8752L10.017 33.3428C9.72125 33.6387 9.24161 33.6387 8.94578 33.3428L3.59192 27.9888C3.29618 27.6925 3.29618 27.2138 3.59192 26.918L19.0592 11.4503L9.73893 7.40847C9.42634 7.27261 9.24277 6.94551 9.29006 6.60832C9.3371 6.27113 9.60307 6.00641 9.94176 5.96254L33.157 2.9284C33.3902 2.89755 33.6244 2.97719 33.7904 3.14333C33.9571 3.30997 34.0365 3.54407 34.0059 3.77726Z" fill="#FDF4FF"/>
</g>
<defs>
<clipPath id="clip0_2007_206">
<rect width="36" height="36" fill="white" transform="translate(0.5 0.5)"/>
</clipPath>
</defs>
</svg>
