<svg width="36" height="36" viewBox="0 0 36 36" fill="none" xmlns="http://www.w3.org/2000/svg">
<g id="Icons/Question" clip-path="url(#clip0_2011_1211)">
<path id="Vector" d="M18 0C8.05141 0 0 8.0505 0 18C0 27.9484 8.0505 36 18 36C27.9486 36 36 27.9495 36 18C36 8.05141 27.9495 0 18 0ZM17.4674 26.4248C16.4486 26.4248 15.6667 25.5718 15.6667 24.6003C15.6667 23.6052 16.4722 22.776 17.4674 22.776C18.4626 22.776 19.2917 23.6052 19.2917 24.6004C19.2917 25.5717 18.4861 26.4248 17.4674 26.4248ZM20.1684 17.208C18.8653 18.2268 18.8415 18.9376 18.8415 20.1696C18.8415 20.6199 18.6045 21.1411 17.4436 21.1411C16.4721 21.1411 16.1405 20.7857 16.1405 19.5537C16.1405 17.516 17.0409 16.5446 17.728 15.9523C18.5098 15.2888 19.8367 14.5544 19.8367 13.275C19.8367 12.185 18.889 11.6638 17.7043 11.6638C15.2876 11.6638 15.8089 13.4883 14.5293 13.4883C13.8896 13.4883 13.1077 13.0617 13.1077 12.1377C13.1077 10.8583 14.5767 8.96273 17.7753 8.96273C20.8081 8.96273 22.822 10.645 22.822 12.8722C22.822 15.0993 20.8081 16.7105 20.1684 17.208Z" fill="#FDF4FF"/>
</g>
<defs>
<clipPath id="clip0_2011_1211">
<rect width="36" height="36" fill="white"/>
</clipPath>
</defs>
</svg>
