<svg width="37" height="37" viewBox="0 0 37 37" fill="none" xmlns="http://www.w3.org/2000/svg">
<g clip-path="url(#clip0_2007_961)">
<path d="M35.9026 15.9537L26.5243 22.7672L30.1069 33.7919C30.3008 34.3888 30.0878 35.0424 29.5809 35.4118C29.3261 35.5962 29.0281 35.6883 28.7287 35.6883C28.4298 35.6883 28.1309 35.5961 27.878 35.4118L18.5002 28.5979L9.12289 35.4109C8.61419 35.7804 7.92681 35.7804 7.41918 35.4109C6.91267 35.0424 6.69941 34.3888 6.89352 33.7919L10.4752 22.7667L1.09785 15.9537C0.590135 15.5847 0.376867 14.9314 0.570975 14.3343C0.765571 13.7372 1.32241 13.3333 1.94938 13.3333H13.5407L17.1223 2.30934C17.3165 1.7124 17.8729 1.30859 18.5008 1.30859C19.1286 1.30859 19.6841 1.7124 19.8779 2.30934L23.4596 13.3333H35.0519C35.6786 13.3333 36.2352 13.7373 36.43 14.3343C36.6224 14.9314 36.4089 15.5847 35.9026 15.9537Z" fill="#FDF4FF"/>
</g>
<defs>
<clipPath id="clip0_2007_961">
<rect width="36" height="36" fill="white" transform="translate(0.5 0.5)"/>
</clipPath>
</defs>
</svg>
